<svg xmlns="http://www.w3.org/2000/svg" width="408" height="412" viewBox="0 0 408 412" fill="none"><g clip-path="url(#clip0_120_608)"><path d="M381.8 207.5C381.8 309.3 298.3 391.3 196.5 389.6C97.7004 388 16.1004 306.6 17.6004 204.6C19.1004 105.2 101 23.7999 202.8 25.3999C301.4 26.9999 381.7 107.4 381.8 207.5ZM119.2 67.8999C119.3 67.9999 119.5 68.1999 119.5 68.2999C118.9 69.7999 119.2 70.8999 120.4 71.7999C121.5 72.6999 122.8 72.7999 123.9 71.6999C124.7 70.8999 125.5 69.7999 125.7 68.7999C126.9 63.4999 123.1 57.9999 117.7 57.0999C114.5 56.5999 111.7 57.3999 109.3 59.5999C113.1 57.8999 115.3 59.8999 117.1 62.8999C117.1 62.0999 117.1 61.2999 117.1 60.2999C118 61.7999 117.7 63.1999 117.5 64.5999C117.3 66.1999 117.1 67.7999 117.1 69.3999C117.1 69.9999 117.6 70.6999 117.8 71.2999C118.4 70.0999 118.8 68.9999 119.2 67.8999ZM203.4 352.1C204 352.1 204.3 352.1 204.7 352.1C214.4 351.6 223.9 350.3 233.3 347.9C261.1 340.8 285 327 304.5 305.9C331.2 277 344.3 242.8 343.8 203.4C343.6 187.9 340.8 172.9 335.8 158.3C331.3 145.2 324.9 133.1 317 121.8C316.6 121.3 316.3 121 315.6 121.2C310 122.7 304.8 124.9 300.3 128.7C295.8 132.5 292.6 137.2 290 142.4C289.3 143.9 288.5 145.4 287.7 146.9C284.7 145.6 281.7 144.8 278.5 145.1C275.3 145.3 272.6 146.8 269.7 148.4C270.1 146.7 270.6 145.2 270.9 143.6C271.5 140.7 272.3 137.8 271.5 134.8C270.3 130.1 267 127.1 263 124.8C259.9 123.1 256.6 122.1 253.2 121.4C251 121 248.8 120.6 246.7 120.2C246.7 118 246.7 115.9 246.7 113.7C268 113.7 289.2 113.7 310.6 113.7C249 39.3999 138.8 45.9999 85.4004 113.7C112.2 113.7 138.9 113.7 165.6 113.7C165.6 115.7 165.6 117.6 165.6 119.5C165.6 120.3 165.2 120.3 164.6 120.4C162.2 120.7 159.8 121 157.4 121.4C153.5 122.1 149.6 123 146 124.8C142.8 126.5 140.3 128.9 139.8 132.6C139.5 134.6 139.4 136.6 139.6 138.6C140.1 143.7 141.5 148.6 143.4 153.3C147.8 164.1 152.4 174.8 157 185.5C172.9 222.2 188.8 258.8 204.7 295.4C205.7 297.6 206.7 299.9 207.7 302.3C208 301.8 208.2 301.5 208.4 301.1C209 302.2 209.6 303.2 210 304.3C211.9 308.6 214 312.7 218.8 314.4C213.7 326.9 208.5 339.4 203.4 352.1ZM193.2 352.3C192.9 351.6 192.8 351.2 192.6 350.8C187.2 338.2 181.7 325.7 176.3 313.1C155.3 264.7 134.3 216.4 113.2 168C108.9 158.1 104.5 148.3 100 138.5C96.0004 129.8 89.1004 124.5 80.0004 122C79.2004 121.8 78.8004 122 78.4004 122.6C73.8004 129.2 69.8004 136 66.3004 143.3C58.0004 160.6 53.4004 178.8 52.3004 197.9C51.5004 212.6 52.8004 227.1 56.3004 241.4C63.1004 268.6 76.7004 291.9 96.8004 311.4C109.1 323.3 123.2 332.7 138.8 339.7C151.9 345.5 165.6 349.3 179.8 351.1C184.2 351.6 188.6 351.9 193.2 352.3ZM48.3004 181C47.8004 181.7 47.7004 182.8 46.5004 182.7C44.6004 182.5 42.7004 182.1 40.7004 181.9C40.8004 179.8 41.0004 178.1 43.3004 177.3C44.8004 176.8 46.2004 175.9 47.5004 175C48.3004 174.4 49.2004 173.7 49.6004 172.8C50.3004 171.1 50.7004 169.2 51.3004 167.2C50.4004 168.1 50.2004 168.2 49.1004 167.5C48.0004 166.7 46.9004 165.9 45.8004 165.1C45.6004 164.9 45.4004 164.4 45.5004 164.1C45.9004 162.6 46.3004 161.2 46.8004 159.7C46.9004 159.4 47.4004 159 47.8004 158.9C49.4004 158.7 51.0004 158.5 52.6004 158.4C53.0004 158.4 53.4004 158.5 53.8004 158.6C54.2004 157.2 54.6004 155.9 55.0004 154.5C54.2004 155.8 53.1004 156.1 51.8004 156.2C47.9004 156.6 44.1004 157 40.2004 157.4C38.6004 157.6 36.9004 157.8 35.3004 157.9C35.3004 158 35.2004 158.1 35.2004 158.2C35.6004 158.5 36.0004 158.9 36.4004 159.2C40.4004 162.3 44.4004 165.3 48.3004 168.4C50.0004 169.8 50.1004 170.6 48.3004 171.8C46.0004 173.4 43.5004 174.7 41.1004 176.2C40.4004 175.3 39.8004 174.5 39.1004 173.9C36.3004 171.2 32.7004 172 31.5004 175.8C31.1004 177.2 30.9004 178.6 30.6004 180C30.4004 181.2 30.2004 182.4 30.0004 183.6C30.1004 183.6 30.2004 183.7 30.3004 183.7C30.4004 182.6 30.8004 181.9 32.0004 182.1C36.4004 182.9 40.9004 183.7 45.3004 184.5C46.2004 184.7 47.2004 184.9 47.3004 186.2C47.7004 184.6 48.0004 182.8 48.3004 181ZM240.9 375.5C241.1 374.5 241.2 373.9 241.3 373.3C242 368.3 242.7 363.3 243.4 358.2C243.7 356.5 244.3 356.1 245.7 356.8C248.4 358.1 251 359.6 253.5 361C253.1 362.5 252.6 363.7 252.4 364.9C252 367.9 254.4 370.4 257.4 369.6C260.1 368.9 262.8 367.8 265.4 366.9C265.4 366.9 265.4 366.8 265.4 366.7C264.4 367.1 263.6 367.1 263.2 365.9C261.7 361.6 260.2 357.3 258.6 353C258.3 352.1 258.2 351.3 259.1 350.6C257.4 351.2 255.7 351.8 254.2 352.4C254.8 352.6 255.9 352.6 256.1 353.1C257 354.9 257.7 356.8 258.5 358.8C257.8 359.1 257.2 359.2 256.7 359.4C255.6 359.9 254.6 359.8 253.6 359C252.5 358.2 251.3 357.5 250.2 356.8C247.6 355.2 243.4 355.2 240.6 357C241.7 356.9 241.9 357.5 241.8 358.3C241.8 358.9 241.7 359.5 241.6 360.1C241.3 363.2 241.3 363.2 238.2 364C235.4 364.7 235.4 364.7 233.7 362.3C233 361.3 232.2 360.2 231.4 358.9C230.3 359.1 228.9 359.5 227.4 359.8C229.2 359.7 230.1 360.9 231 362.1C233.8 366.1 236.7 370 239.5 374C240 374.5 240.4 374.9 240.9 375.5ZM29.5004 234C29.9004 235.2 29.8004 235.2 28.2004 235.3C27.8004 235.3 27.3004 235.6 27.1004 235.9C27.0004 236.1 27.1004 236.8 27.4004 236.9C27.7004 237.1 28.3004 237.1 28.7004 237C29.1004 236.9 29.5004 236.6 29.9004 236.6C30.1004 236.6 30.3004 236.9 30.4004 237.1C30.2004 237.2 30.0004 237.5 29.8004 237.5C28.9004 237.3 28.2004 237.4 27.8004 238.3C27.3004 239.2 27.7004 240.1 28.3004 240.7C29.8004 242.1 31.4004 243.4 32.9004 244.8C32.9004 243.4 33.2004 241.7 33.0004 240.1C32.9004 239.1 33.4004 238.6 33.8004 238.4C34.7004 237.9 35.7004 237.7 36.2004 236.7C36.2004 236.6 36.5004 236.6 36.6004 236.6C38.1004 237.2 39.2004 236.5 40.2004 235.4C41.5004 236.1 42.6004 235.8 43.5004 234.7C43.7004 234.5 44.1004 234.5 44.5004 234.4C45.7004 234 46.9004 233.6 48.1004 233.1C48.1004 233.1 48.2004 233.1 48.2004 233C48.7004 232.4 49.2004 231.8 49.7004 231.3C49.5004 231.3 49.1004 231.5 48.9004 231.4C47.8004 230.5 46.7004 230.5 45.4004 230.9C44.6004 231.1 43.7004 231 42.9004 231C42.9004 231.1 42.9004 231.3 42.9004 231.4C41.5004 230.2 40.3004 230.5 39.5004 231.5C38.4004 231.4 37.5004 231 37.0004 231.3C35.8004 232.1 34.8004 232.1 33.4004 231.8C32.1004 231.6 31.3004 231.2 30.8004 230C30.4004 228.9 29.9004 227.9 29.4004 226.9C29.2004 226.5 29.0004 226.1 28.8004 225.6C27.9004 227.7 27.3004 229.3 26.8004 230.9C26.5004 231.7 26.3004 232.6 26.4004 233.4C26.5004 234.5 27.7004 235 28.7004 234.5C28.9004 234.4 29.2004 234.3 29.5004 234ZM115.3 62.5999C114.4 60.8999 113.2 59.7999 111.4 59.7999C109.5 59.7999 107.9 60.5999 107 62.3999C104 68.1999 107.4 75.2999 113.7 76.6999C117 77.3999 120 76.4999 122.5 74.1999C122.1 74.1999 121.7 74.2999 121.3 74.3999C118 75.1999 115.2 73.0999 115.3 69.6999C115.3 68.5999 115.6 67.4999 115.7 66.3999C115.9 65.1999 115.5 64.0999 114.5 63.4999C113.4 62.7999 112.4 63.0999 111.4 63.6999C111.1 63.8999 110.7 64.1999 110.3 64.4999C111.3 62.2999 112.7 61.7999 115.3 62.5999ZM81.8004 78.0999C82.8004 77.6999 83.7004 77.2999 84.6004 78.3999C88.0004 82.5999 91.4004 86.7999 94.8004 90.8999C95.5004 91.6999 96.0004 92.5999 95.1004 93.6999C96.7004 92.3999 98.3004 91.0999 99.9004 89.7999C97.7004 90.5999 97.7004 90.5999 96.3004 88.8999C95.2004 87.6999 94.2004 86.4999 93.2004 85.1999C92.5004 84.3999 91.9004 83.5999 91.2004 82.6999C94.4004 80.0999 97.4004 77.5999 100.5 75.0999C102.4 77.4999 104.2 79.6999 105.9 81.9999C106.5 82.7999 106.9 83.5999 106.1 84.5999C107.7 83.2999 109.3 81.9999 110.8 80.6999C108.8 81.4999 108.7 81.5999 107.3 79.8999C104.1 76.0999 101 72.2999 97.9004 68.4999C97.1004 67.4999 96.2004 66.5999 97.2004 65.1999C95.7004 66.3999 94.2004 67.6999 92.9004 68.6999C93.6004 68.6999 94.7004 68.4999 95.1004 68.8999C96.8004 70.4999 98.2004 72.3999 99.8004 74.1999C96.6004 76.7999 93.6004 79.2999 90.5004 81.8999C89.2004 80.2999 88.0004 78.8999 86.8004 77.3999C86.1004 76.4999 85.1004 75.4999 86.2004 74.1999C84.9004 75.5999 83.3004 76.8999 81.8004 78.0999ZM357.7 239C357.7 238.9 357.7 238.8 357.7 238.7C355.2 238.2 352.8 237.7 350.3 237.1C350.2 237.2 350.2 237.3 350.1 237.4C350.4 237.5 350.7 237.7 351 237.8C350.8 238.2 350.7 238.3 350.6 238.4C349 240.5 349.1 242.1 351.4 243.4C353 244.3 354.8 244.8 356.6 245.1C359.3 245.5 361.1 244.4 362.3 242C362.7 241.1 363.1 240.3 363.5 239.4C364.6 236.9 367 236.6 368.8 238.7C369.9 240 370 241.6 369.1 243.2C367.7 245.6 366.5 246.3 364.6 246C363.8 245.9 363 245.8 362.1 245.7C362.1 245.9 362 246.1 362 246.3C365.2 247 368.5 247.7 371.9 248.5C371.7 248.1 371.7 248.1 371.7 248C371.7 247.9 371.6 247.9 371.5 247.8C369.9 247.4 370.2 246.5 370.8 245.4C372.5 241.7 372 238.9 367 236.5C366.2 236.1 365.2 236 364.3 235.9C361.1 235.7 359.6 236.6 358.4 239.6C358.1 240.3 357.8 240.9 357.6 241.6C356.5 245.1 353.6 244.6 351.7 242.9C350.7 242 350.8 241 351.8 240.1C352.9 239.1 354.3 238.7 355.8 238.9C356.5 238.9 357.1 238.9 357.7 239ZM371.7 249.6C371.7 249.5 371.7 249.3 371.7 249.2C368.4 248.6 365.2 247.9 361.9 247.3C361.9 247.4 361.8 247.6 361.8 247.7C362.3 247.9 362.8 248.1 363.4 248.3C364.3 248.7 365.4 248.9 365.9 249.5C367 250.9 367.4 252.7 367 254.5C366.6 256.2 364.8 257.3 362.9 257.1C361.3 256.9 360.5 255.9 360.5 253.8C360.5 252.9 360.6 252 360.6 251C360.6 249.1 359.8 247.6 358.2 246.6C355.9 245.1 353.4 244.8 350.7 245.4C348.4 246 347.8 247.1 348.4 249.3C348.6 250 348.4 250.3 347.7 250.3C347.4 250.3 347.1 250.3 346.8 250.3C346.8 250.4 346.8 250.5 346.8 250.5C349.2 250.9 351.7 251.3 354.1 251.8C353.8 251.4 353.3 251.3 352.9 251.2C351.5 250.7 350.5 249.8 350 248.4C349.8 247.9 350 247.1 350.3 246.6C350.9 245.7 353 245.5 354.2 246C355.4 246.5 356 247.4 356 248.7C356 250 355.9 251.3 355.9 252.5C355.9 254.5 356.8 256 358.6 256.8C359.8 257.3 361.1 257.8 362.4 257.9C366.6 258.4 369.1 256.2 369.6 252.2C369.6 251.7 369.6 251.2 369.5 250.8C369.4 250 369.7 249.6 370.6 249.6C370.9 249.6 371.3 249.6 371.7 249.6ZM99.1004 335.8C100.5 333.9 101.9 332.1 103.2 330.4C103.8 329.7 104.3 328.9 105.5 329.2C104.1 328.1 102.6 327.1 101.2 326C102.3 327.6 102.4 327.6 101.2 329.3C98.7004 332.7 96.2004 336.1 93.7004 339.5C93.1004 340.3 92.5004 341 91.4004 340.4C92.8004 341.4 94.2004 342.4 95.3004 343.3C95.2004 342.7 94.8004 341.9 95.0004 341.5C96.0004 339.8 97.3004 338.2 98.5004 336.5C101.4 338.6 104.1 340.7 106.9 342.7C105.9 344.1 105 345.3 104.1 346.5C103.5 347.4 102.9 348.4 101.5 347.9C102.9 348.9 104.3 349.9 105.6 350.9C104.4 349.9 104.8 349 105.5 348.1C108.1 344.7 110.6 341.3 113.2 337.8C113.8 337 114.5 336.2 115.7 336.7C114.2 335.6 112.7 334.5 111.4 333.6C111.6 334.2 112.1 335.1 111.8 335.5C110.5 337.7 108.9 339.8 107.4 342C104.7 339.9 102 337.9 99.1004 335.8ZM283.5 64.3999C284.5 62.7999 285.4 61.3999 286.3 59.9999C286.8 59.1999 287.4 58.5999 288.5 58.7999C287 57.8999 285.6 56.9999 284.1 56.0999C284.9 56.8999 285.3 57.5999 284.6 58.5999C282.2 62.3999 279.9 66.1999 277.5 69.9999C277 70.7999 276.4 71.5999 275.3 71.1999C276.8 72.1999 278.4 73.0999 279.7 73.9999C279.5 73.3999 278.9 72.4999 279.1 71.9999C280.2 69.6999 281.6 67.5999 283 65.2999C286.1 67.1999 288.9 68.9999 291.9 70.8999C290.5 72.9999 289.3 74.9999 288 76.8999C287.5 77.5999 287 78.2999 285.9 77.8999C287.4 78.8999 289 79.7999 290.5 80.7999C289.3 79.3999 289.2 79.3999 290.2 77.6999C292.4 73.9999 294.7 70.3999 296.9 66.7999C297.4 65.8999 298 65.1999 299.2 65.6999C297.7 64.7999 296.3 63.8999 295 63.0999C295.1 63.6999 295.6 64.3999 295.4 64.8999C294.5 66.6999 293.4 68.2999 292.3 70.1999C289.4 68.0999 286.6 66.2999 283.5 64.3999ZM36.0004 209.6C36.2004 213.1 36.3004 216.5 36.5004 220.2C34.7004 220.2 33.1004 220.2 31.4004 220.2C30.4004 220.2 29.3004 220.3 29.0004 218.9C29.1004 220.7 29.2004 222.5 29.3004 224.2C29.4004 222.7 30.3004 222.3 31.5004 222.3C35.7004 222.1 40.0004 222 44.2004 221.8C45.2004 221.8 46.3004 221.7 46.7004 223C46.6004 221.2 46.5004 219.4 46.5004 217.6C46.1004 218.2 45.9004 219.2 45.4004 219.2C42.8004 219.6 40.1004 219.7 37.4004 219.9C37.2004 216.3 37.1004 212.9 36.9004 209.2C39.3004 209.2 41.5004 209.2 43.8004 209.2C44.7004 209.2 45.8004 209.1 45.9004 210.4C45.9004 208.6 45.9004 206.7 45.9004 204.9C45.2004 206.8 45.2004 206.9 43.1004 207C39.0004 207.3 35.0004 207.4 30.9004 207.6C29.9004 207.6 28.8004 207.9 28.4004 206.5C28.5004 208.2 28.5004 209.8 28.6004 211.5C28.8004 210.4 29.2004 209.8 30.3004 209.8C32.2004 209.8 34.0004 209.7 36.0004 209.6ZM321.6 330C319.8 331 319.8 331 318.2 329.5C316.9 328.3 315.6 327.1 314.2 325.8C312.8 324.5 311.4 323.2 310.1 321.9C310.1 321.8 310.2 321.7 310.2 321.6C316.9 321.6 323.6 321.6 330.3 321.6C330.4 321.4 330.5 321.2 330.6 321.1C330 320.6 329.3 320.2 328.7 319.6C325.6 316.6 322.5 313.6 319.4 310.6C318.6 309.8 317.8 309 318.8 307.8C317.8 308.9 316.8 310 315.7 311C317 310.3 317.8 311 318.5 311.7C321.2 314.1 323.8 316.5 326.4 319C326.5 319.1 326.6 319.3 326.8 319.5C320 319.6 313.4 319.2 306.5 319.8C307 320.4 307.3 320.7 307.6 321C310.9 324.3 314.3 327.5 317.7 330.8C318.4 331.5 319 332.2 318.3 333C319.3 332.1 320.4 331 321.6 330ZM373.2 211.3C373.1 213.6 371.5 213.3 370 213.4C367.6 213.5 365.2 213.6 362.8 213.7C361.6 213.7 360.4 213.7 359 213.7C363.9 208.9 368.6 204.2 373.4 199.5C373.3 199.4 373.2 199.3 373.2 199.2C372.8 199.2 372.4 199.1 372 199.1C367.4 199.2 362.8 199.3 358.2 199.3C357 199.3 355.7 199.4 355.6 197.7C355.6 199.4 355.6 201.1 355.6 202.8C356.3 200.9 356.3 200.8 358.6 200.7C360.7 200.6 362.8 200.5 364.9 200.5C366.4 200.5 367.9 200.5 369.4 200.5C364.7 205.3 359.8 209.7 355.6 214.9C356.1 215.1 356.4 215.1 356.8 215.1C361.5 215.1 366.1 215 370.8 215C371.8 215 372.9 214.8 373.1 216.3C373.2 214.5 373.2 212.9 373.2 211.3ZM326.8 111.8C331.8 111.8 336 107.8 336 103.2C336 97.9999 331.2 93.0999 326.2 93.0999C321.2 93.0999 317 97.1999 317 102.1C317 107.1 321.7 111.8 326.8 111.8ZM313.1 89.4999C314.4 89.2999 315.5 89.1999 316.5 88.9999C319.6 88.0999 321.1 85.0999 319.3 82.6999C317.5 80.2999 315.2 78.2999 313.1 76.1999C313 76.2999 312.8 76.2999 312.7 76.3999C313.7 77.1999 313.7 77.8999 313 78.7999C310 81.9999 307 85.2999 303.9 88.4999C303.3 89.1999 302.6 89.7999 301.5 89.3999C302.7 90.4999 304 91.6999 305 92.5999C305 91.9999 304.7 90.9999 305 90.5999C306.1 88.9999 307.5 87.5999 308.8 86.0999C309.3 86.5999 309.7 86.8999 310.1 87.1999C311.1 87.8999 311.5 88.8999 311.3 90.1999C311 92.0999 310.9 94.0999 310.8 95.9999C310.8 97.9999 312.3 100.1 313.8 100.6C313.5 99.7999 312.9 98.7999 312.9 97.7999C312.8 95.0999 313 92.2999 313.1 89.4999ZM273.6 65.0999C273.5 64.9999 273.4 64.8999 273.3 64.7999C272.2 66.4999 270.7 67.2999 268.8 66.7999C266.8 66.3999 265 65.4999 263.5 64.0999C259.6 60.2999 259.3 54.0999 263.5 49.1999C265.3 47.0999 267.7 46.2999 270.3 47.0999C272.1 47.5999 273.8 48.3999 275.4 49.3999C277.3 50.5999 278.4 52.0999 277.3 54.8999C277.3 54.8999 277.4 54.9999 277.5 55.0999C278.2 53.5999 278.9 52.1999 279.7 50.6999C278.3 49.7999 277 48.8999 275.6 48.0999C274.5 47.4999 273.4 46.9999 272.2 46.4999C267.6 44.7999 263.4 45.8999 260.4 49.5999C257.5 53.1999 257 58.1999 259.5 61.8999C262.1 65.7999 266.1 67.3999 270.4 68.3999C270.7 68.4999 271.2 68.2999 271.4 68.0999C272.2 67.1999 272.9 66.1999 273.6 65.0999ZM271.9 364.1C273.9 363.3 275.9 362.6 277.8 361.8C278.9 361.3 279.9 360.6 280.8 359.8C283.3 357.6 284.3 354.7 283.5 351.5C282.7 348 280.6 345.4 277 344.6C272.3 343.6 268.4 345.5 265.2 348.8C264.9 349.1 264.9 349.8 265.1 350.1C265.7 351.5 266.4 352.9 267.2 354.3C267.7 355.3 268 356.1 266.9 357C268.5 356.2 270.2 355.3 272.1 354.4C269.8 354.8 269.8 354.8 268.8 352.8C268.5 352.3 268.3 351.7 268 351.2C266.6 348.5 266.8 348.1 269.6 346.8C269.8 346.7 270 346.6 270.1 346.6C274.7 344.7 279.7 347.1 281.6 352C283.2 356.3 281.3 359.8 276.3 361.5C274.2 362.2 272.2 362.7 270.4 360.6C270.8 361.7 271.3 362.8 271.9 364.1ZM344.1 309.3C335.7 309.7 328.8 305.6 321.9 301.5C323.2 302.9 324.6 304.2 325.8 305.6C329.1 309.3 332.7 312.8 333.7 318.2C335 315.8 334.8 313.5 334.7 311.1C339.8 311.2 341.9 310.8 344.1 309.3ZM349.4 163.4C349.5 161.1 349.5 161.1 351.8 160.3C353.1 159.9 354.4 159.5 355.7 159.1C358.8 158.1 358.8 158.2 359.7 161.3C360.1 162.6 360.3 163.8 358.9 164.7C360 164.5 361 164.3 362.2 164.1C361.9 163.8 361.6 163.6 361.4 163.3C360.8 161.7 360.3 160.1 359.8 158.5C359.7 158.3 360.1 157.9 360.3 157.8C362.4 157.1 364.5 156.5 366.6 155.9C366.9 155.8 367.5 156.2 367.6 156.5C368 157.4 368.1 158.3 368.4 159.3C368.9 160.7 369 161.9 367.6 162.9C368.6 162.7 369.6 162.5 370.5 162.4C369.4 158.6 368.3 155 367.1 151.4C367.2 152.6 366.9 153.6 365.6 154C360.6 155.5 355.7 157 350.7 158.5C349.6 158.8 348.3 159.2 347.6 157.7C348.2 159.4 348.8 161.4 349.4 163.4ZM62.3004 276.3C62.1004 277.6 62.1004 277.6 60.8004 277.8C60.0004 277.9 59.1004 278 58.3004 278C56.1004 278.2 56.1004 278.2 55.2004 276.2C54.7004 275.1 53.7004 273.9 53.9004 272.9C54.1004 271.9 55.3004 271 56.2004 270.1C56.9004 269.4 57.7004 268.7 58.5004 267.9C58.0004 266.7 57.3004 265.3 56.7004 263.9C56.6004 263.9 56.5004 263.9 56.4004 263.9C57.2004 265.5 56.4004 266.7 55.4004 267.8C52.0004 271.5 48.6004 275.2 45.2004 278.9C44.9004 279.2 44.7004 279.5 44.2004 280.1C44.9004 280.1 45.3004 280.1 45.6004 280.1C50.6004 279.8 55.6004 279.5 60.6004 279.1C62.0004 279 63.4004 279 64.3004 280.5C63.7004 279.2 63.0004 277.8 62.3004 276.3ZM209.5 39.5999C209.6 39.5999 209.7 39.4999 209.8 39.4999C209.9 38.2999 210 37.0999 210 35.9999C210 35.7999 209.7 35.4999 209.5 35.3999C206.8 34.9999 204.1 34.3999 201.3 34.8999C197.6 35.4999 195.1 37.5999 194.1 41.1999C193.1 44.7999 193.8 48.0999 196.8 50.4999C200.3 53.2999 204.4 53.2999 208.5 52.4999C208.8 52.4999 209.1 52.1999 209.2 51.8999C209.5 50.8999 209.7 49.7999 210 48.7999C208.5 50.9999 208.2 51.3999 206.9 51.5999C200.8 52.8999 195.5 48.3999 196 42.1999C196.3 38.7999 197.9 36.4999 200.6 35.8999C202 35.5999 203.5 35.4999 205 35.6999C207.3 35.8999 209.5 36.4999 209.5 39.5999ZM50.2004 290.2C51.3004 293.1 52.5004 296 54.6004 298.3C57.1004 300.9 60.1004 301.8 63.6004 300.7C67.0004 299.6 69.4004 297.3 69.9004 293.6C70.5004 289.1 68.2004 285.7 65.3004 282.5C65.1004 282.3 64.5004 282.1 64.2004 282.2C63.3004 282.5 62.4004 282.8 61.5004 283.2C61.9004 283.4 62.2004 283.4 62.4004 283.4C63.8004 283.1 64.9004 283.6 65.8004 284.7C70.2004 289.9 68.4004 296.9 61.9004 299.2C59.2004 300.2 56.7004 299.6 54.9004 297.3C54.0004 296.1 53.2004 294.7 52.6004 293.3C51.8004 291.5 52.0004 289.8 53.9004 288.6C53.9004 288.6 53.9004 288.5 53.8004 288.3C52.5004 288.8 51.4004 289.5 50.2004 290.2ZM195.2 361.3C194.8 361.9 194.5 362.4 194.3 362.8C192.1 367.4 189.9 371.9 187.8 376.5C187.3 377.6 186.7 378.7 185.3 379C186.8 379.1 188.3 379.1 189.5 379.2C189.3 378.8 188.8 378.1 188.9 377.8C190.6 373.5 192.5 369.2 194.4 364.9C194.6 365.2 194.7 365.3 194.8 365.4C196.3 369.6 197.7 373.8 199.2 377.9C199.5 378.8 199.3 379.4 198.3 379.6C200.2 379.6 202 379.6 203.9 379.6C202.3 379.5 201.8 378.3 201.4 377.1C199.7 372.4 197.9 367.8 196.2 363.1C195.8 362.5 195.5 362 195.2 361.3ZM57.9004 147.8C56.6004 149.3 56.6004 149.4 54.5004 148.6C50.8004 147.1 47.1004 145.6 43.4004 144.1C41.6004 143.3 41.5004 143.2 42.3004 141.4C42.4004 141.2 42.5004 141 42.6004 140.8C43.6004 139.1 45.9004 138.5 48.0004 139.3C49.8004 140 50.7004 141.7 50.3004 143.7C50.2004 144.3 50.1004 144.8 50.0004 145.3C51.1004 143.8 51.4004 142.1 50.8004 140.3C50.2004 138.3 48.7004 137.1 46.7004 136.8C44.7004 136.5 43.4004 137.7 42.6004 139.3C41.5004 141.4 40.7004 143.7 39.7004 145.9C39.6004 146.2 39.5004 146.4 39.4004 146.7C39.9004 145.7 40.6004 145.3 41.7004 145.7C45.9004 147.4 50.0004 149.2 54.2004 150.9C55.0004 151.3 55.8004 151.7 55.7004 152.9C56.5004 151.2 57.2004 149.5 57.9004 147.8ZM120.4 359.7C120.5 359.6 120.6 359.5 120.7 359.4C119.5 358.9 119.4 358.1 120 357.2C122.2 353.4 124.4 349.5 126.6 345.7C127.1 344.9 127.6 344.1 128.8 344.3C127.2 343.4 125.6 342.5 124 341.6C125.4 343.1 125.5 343.1 124.5 344.9C122.6 348.4 120.5 351.9 118.6 355.4C117.6 357.2 117.5 357.2 115.8 356.1C115.6 356 115.5 355.9 115.3 355.8C113.9 354.8 113.4 352.9 114 351C114.6 349.1 115.9 348.1 117.8 348.2C118.8 348.3 119.7 348.6 120.6 348.8C119.1 347.3 116.4 346.9 114.4 347.8C111.4 349.2 110.5 352.8 112.9 354.8C115.2 356.8 117.9 358.1 120.4 359.7ZM28.8004 200.1C29.0004 198.6 30.0004 198.5 31.2004 198.6C35.5004 198.9 39.8004 199.2 44.1004 199.6C45.1004 199.7 46.0004 199.9 46.1004 201.1C46.4004 198 46.7004 195 46.9004 191.9C46.9004 191.6 46.6004 191.1 46.3004 191C45.7004 190.7 45.0004 190.7 44.5004 190.6C45.0004 191.2 45.7004 191.9 45.8004 192.6C46.0004 193.8 45.8004 195 45.6004 196.2C45.5004 196.7 44.8004 197.3 44.4004 197.3C42.2004 197.3 40.0004 197.1 37.6004 197C38.3004 195.1 37.0004 192.8 39.5004 191.6C38.5004 191.4 37.7004 191.3 36.8004 191.2C36.8004 193.1 36.8004 195 36.8004 196.9C34.4004 196.7 32.2004 196.6 29.9004 196.4C30.0004 195.2 30.1004 194 30.2004 192.9C30.3004 191.8 30.5004 190.8 32.0004 190.6C31.1004 190.4 30.3004 190.3 29.4004 190.1C29.2004 193.5 29.0004 196.8 28.8004 200.1ZM291.2 354C294 352.1 296.8 350.3 299.6 348.5C298.6 349 297.8 348.9 297.2 348C294.7 344.2 292.2 340.4 289.8 336.6C289.3 335.8 289 335.1 289.9 334.3C287.2 335.9 284.7 337.5 282.1 339.2C281.9 339.4 281.7 339.9 281.7 340.2C281.9 340.9 282.3 341.5 282.5 341.9C282.8 341.1 282.9 340.2 283.4 339.6C284.1 338.8 285.1 338.3 286.1 337.8C286.6 337.6 287.5 337.7 287.8 338C289.2 339.8 290.4 341.7 291.7 343.6C290.7 344.2 289.9 344.7 289.1 345.2C288.2 345.8 287.3 346.3 286.3 345.3C286.7 346.1 287.2 347 287.5 347.6C289 346.5 290.5 345.4 292.1 344.2C293.4 346.2 294.7 348.1 295.9 350C294.8 350.7 293.9 351.2 293 351.8C292 352.4 291.1 352.8 290 351.8C290.4 352.5 290.8 353.2 291.2 354ZM171.8 377.1C175.2 377.6 178.5 378 181.8 378.5C179.8 378.2 180.2 376.7 180.4 375.4C180.9 371.6 181.4 367.8 182 364C182.2 362.8 182.1 361.4 184.2 361.2C181.2 360.7 178.5 360.3 175.9 359.9C173.9 359.6 173.2 360.3 173.4 362C174 361.7 174.7 361 175.4 361C176.5 360.9 177.7 361.1 178.8 361.4C179.3 361.5 179.9 362.3 179.9 362.7C179.7 364.9 179.4 367.1 179.1 369.5C177.3 368.6 174.8 369.8 173.9 367.1C173.7 368.1 173.5 369 173.3 369.6C175.2 369.8 177 370 179 370.2C178.7 372.6 178.3 374.8 178 377.1C176.7 376.9 175.6 376.8 174.6 376.6C173.5 376.4 172.6 376.1 172.5 374.7C172.3 375.4 172.1 376.2 171.8 377.1ZM356.8 230.6C355.4 230 355.1 228.9 355.3 227.6C355.4 226.9 355.4 226.2 355.5 225.6C355.8 224.1 356.2 223.8 357.7 223.9C359.1 224 360.5 224.2 361.9 224.4C363.7 224.6 363.7 224.7 363.4 226.5C363.2 227.8 363.6 229.5 361.2 229.8C362.5 230.1 363.4 230.3 364.1 230.4C364.2 228.5 364.3 226.6 364.5 224.7C366.9 225 369.1 225.2 371.4 225.5C371.3 226.6 371.2 227.4 371 228.3C370.8 229.5 370.8 230.9 369.1 231.1C369.9 231.3 370.8 231.5 371.6 231.7C372 228.4 372.3 225.1 372.7 221.9C372.3 222.8 371.9 223.4 370.8 223.3C366.3 222.8 361.8 222.3 357.4 221.7C356.4 221.6 355.6 221.3 355.5 220.1C355.1 222.7 354.7 225.3 354.4 227.9C354.1 230.2 354.2 230.3 356.5 230.7C356.5 230.6 356.6 230.6 356.8 230.6ZM177.8 54.0999C175.3 53.6999 175.7 54.0999 175 51.4999C174.8 50.4999 174.6 49.4999 174.4 48.3999C173.8 44.9999 173.2 41.6999 172.7 38.1999C174.1 37.9999 175.3 37.7999 176.6 37.5999C177.7 37.4999 178.7 37.5999 179.3 38.6999C179.2 37.7999 179.1 36.8999 178.9 36.0999C178.7 35.9999 178.7 35.9999 178.7 35.9999C174.1 36.6999 169.6 37.4999 165 38.2999C164.8 38.2999 164.4 38.5999 164.4 38.6999C164.3 39.4999 164.4 40.2999 164.4 40.8999C164.9 40.3999 165.3 39.6999 165.9 39.4999C167.4 38.9999 169 38.7999 170.6 38.3999C171.4 43.0999 172.2 47.6999 172.9 52.1999C173.1 53.2999 173.4 54.3999 171.9 54.8999C173.8 54.7999 175.7 54.4999 177.8 54.0999ZM159 40.1999C156.9 40.2999 155 40.4999 153.3 41.6999C150.8 43.3999 150.6 46.6999 153.1 48.4999C154.1 49.1999 155.2 49.6999 156.4 50.1999C157.6 50.6999 158.8 51.1999 159.9 51.6999C161.2 52.2999 161.7 53.4999 161.6 54.8999C161.5 56.2999 160.7 57.0999 159.5 57.4999C158.5 57.7999 157.3 57.9999 156.4 57.7999C155.5 57.5999 154.8 56.6999 154 56.0999C154.1 56.5999 154.3 57.1999 154.3 57.8999C154.4 58.7999 154.9 59.2999 155.8 59.0999C157.3 58.7999 159 58.5999 160.4 57.9999C164 56.3999 164.2 51.9999 161 49.7999C159.9 49.0999 158.6 48.6999 157.4 48.0999C156.3 47.5999 155.1 47.2999 154.1 46.5999C152.2 45.3999 152.4 42.9999 154.4 41.9999C156.4 40.8999 158 41.1999 159.7 43.0999C159.4 41.8999 159.2 40.9999 159 40.1999ZM217.1 378.8C222 378.1 226.8 377.5 231.7 376.8C231.8 376 231.8 375.2 231.9 374.3C230.4 377 227.6 375.9 225.4 376.7C224.8 371.8 224.1 367.1 223.5 362.4C223.4 362 223.4 361.5 223.6 361.1C223.8 360.8 224.2 360.5 224.7 360.1C222.7 360.4 220.9 360.6 219 360.9C221 361.3 221 361.2 221.4 363.3C221.8 365.9 222.2 368.5 222.5 371.1C222.8 373 223 374.9 223.3 376.9C222.1 377 221 377.2 220 377.3C218.8 377.4 217.5 377.5 216.8 376.1C216.9 377.1 217 378 217.1 378.8ZM92.0004 317.1C92.1004 317.9 92.5004 319 92.2004 319.4C90.2004 321.9 88.4004 324.6 84.7004 325.1C81.9004 325.5 79.2004 327 76.5004 326.3C77.2004 327 78.0004 327.9 78.7004 328.7C79.1004 328.3 79.4004 327.6 79.8004 327.5C82.4004 326.7 85.0004 325.9 87.8004 325.1C87.1004 328.1 86.6004 330.8 85.9004 333.5C85.8004 333.9 85.3004 334.3 85.0004 334.7C85.9004 335.6 87.0004 336.6 87.8004 337.3C87.8004 336.3 87.7004 335.2 87.8004 334.1C88.2004 331.5 88.7004 328.9 89.3004 326.4C89.5004 325.7 89.9004 325 90.3004 324.4C91.1004 323.4 92.1004 322.5 93.0004 321.5C93.7004 320.8 94.4004 320 95.7004 321C95.6004 321 95.5004 321.1 95.3004 321.1C94.4004 319.9 93.2004 318.5 92.0004 317.1ZM370.7 184.6C370.4 184.7 370.2 184.8 370 184.8C365.5 185.3 361 185.9 356.5 186.4C355.5 186.5 354.6 186.5 354.2 185.2C354.2 186.2 354.4 187.2 354.5 188.1C354.6 189 354.7 189.9 354.8 190.8C355.3 188.9 355.3 188.8 357.4 188.5C359.1 188.3 360.7 188 362.4 187.8C365.2 187.4 368.1 187.1 371 186.7C371.1 188 371.3 189.2 371.3 190.5C371.4 191.6 371.4 192.7 370 193.3C370.9 193.2 371.8 193.1 372.6 193C372 188.1 371.4 183.4 370.9 178.4C370.2 178.3 369.3 178.2 368.5 178.1C369 178.8 369.7 179.4 369.9 180.1C370.4 181.6 370.5 183.1 370.7 184.6ZM84.9004 315.1C85.4004 314.7 86.0004 314.2 86.5004 313.9C87.3004 313.4 87.5004 312.7 86.9004 312C85.8004 310.7 84.9004 309.2 83.6004 308.1C81.1004 306.1 77.5004 307.3 76.5004 310.4C76.1004 311.6 76.2004 313 76.2004 314.3C76.2004 315.7 76.5004 317.1 76.5004 318.5C76.5004 320.6 74.7004 321.9 72.9004 321.2C71.4004 320.6 70.4004 319.3 70.1004 317.7C70.0004 317.1 70.4004 316.4 70.6004 315.6C69.8004 316.2 69.1004 316.8 68.4004 317.4C69.4004 319.2 70.4004 320.8 72.1004 321.8C74.7004 323.4 77.7004 322.2 78.4004 319.2C78.6004 318.3 78.6004 317.4 78.6004 316.5C78.6004 314.9 78.4004 313.3 78.4004 311.7C78.5004 309.7 79.9004 308.4 81.7004 308.5C83.4004 308.6 84.3004 309.7 85.1004 311C86.0004 312.4 85.8004 313.7 84.9004 315.1ZM309.4 339.9C306.2 335.9 303.2 332.2 300.2 328.3C299.8 327.8 299.8 327 299.6 326.3C298.6 327.1 297.3 328.1 296.4 328.9C297.1 329.2 298 329.3 298.4 329.7C301.5 333.4 304.6 337.1 307.7 340.9C306.6 341.7 305.6 342.5 304.6 343.3C303.7 343.9 302.8 344.3 301.7 343.6C302.3 344.3 302.8 345.1 303.3 345.7C307.1 342.6 310.9 339.6 314.8 336.5C314.5 335.9 314.1 335.1 313.7 334.3C313.7 337.5 310.8 337.9 309.4 339.9ZM52.9004 118.6C52.4004 119.6 51.7004 120.8 51.2004 121.7C51.8004 122.1 52.5004 122.4 52.9004 122.9C53.7004 124 54.4004 125.3 55.1004 126.5C55.7004 127.5 56.4004 128.6 57.1004 129.7C54.1004 129.9 51.3004 130.1 48.6004 130.2C48.2004 130.2 47.7004 129.8 47.2004 129.6C46.6004 130.7 45.9004 132 45.3004 133.1C46.4004 132.8 47.6004 132.4 48.8004 132.2C50.0004 132 51.2004 132.1 52.4004 131.9C55.8004 131.3 58.9004 131.8 61.7004 133.9C61.8004 134 61.9004 134 62.0004 134.1C62.9004 134.6 63.9004 135.1 63.4004 136.5C64.2004 134.9 65.1004 133.3 65.9004 131.8C65.1004 133 64.1004 132.8 63.1004 132.3C61.9004 131.7 60.7004 131.1 59.5004 130.4C58.9004 130 58.2004 129.6 57.9004 129.1C56.4004 126.6 55.0004 124.1 53.6004 121.5C53.1004 120.5 53.1004 119.5 52.9004 118.6ZM39.8004 268.5C39.7004 267.5 39.8004 266.7 40.9004 266.3C45.2004 264.8 49.6004 263.3 53.9004 261.8C54.7004 261.5 55.5004 261.5 56.0004 262.4C55.0004 259.2 54.0004 256.1 52.9004 253C52.8004 252.7 52.4004 252.5 52.1004 252.5C51.4004 252.5 50.6004 252.7 49.9004 252.8C49.9004 252.9 49.9004 253 49.8004 253.1C51.8004 252.9 52.4004 254.2 52.9004 255.7C53.0004 256 53.1004 256.4 53.2004 256.7C53.9004 259 53.8004 259.4 51.5004 260.2C47.8004 261.5 44.1004 262.8 40.4004 264.1C39.4004 264.5 38.5004 264.5 37.9004 263.4C38.7004 265.2 39.2004 266.8 39.8004 268.5ZM67.6004 104.2C67.6004 106.4 69.3004 108.1 71.4004 108.1C73.6004 108.1 75.4004 106.3 75.4004 104.2C75.4004 102.1 73.6004 100.3 71.5004 100.3C69.3004 100.3 67.6004 102 67.6004 104.2ZM237.3 51.1999C239.4 51.1999 241.3 49.3999 241.3 47.2999C241.3 45.1999 239.5 43.2999 237.4 43.2999C235.3 43.2999 233.5 44.9999 233.4 47.0999C233.3 49.2999 235.1 51.1999 237.3 51.1999ZM346.3 127.1C344.1 127.1 342.4 129 342.4 131.1C342.5 133.2 344.2 135 346.3 135C348.4 135 350.3 133.1 350.2 131C350.3 128.8 348.5 127.1 346.3 127.1ZM142.2 363.1C142.2 365.2 143.9 367 146 367.1C148.2 367.2 150 365.4 150.1 363.2C150.1 361.1 148.3 359.2 146.1 359.2C144 359.2 142.2 361 142.2 363.1ZM345.2 282.8C343 282.8 341.2 284.5 341.2 286.7C341.2 288.8 342.9 290.6 345.1 290.6C347.3 290.6 349.1 288.8 349.1 286.7C349.1 284.5 347.4 282.8 345.2 282.8ZM141.7 60.9999C141.6 60.9999 141.5 60.8999 141.4 60.8999C141.9 63.1999 140.3 63.7999 138.9 64.3999C138.6 64.4999 138.3 64.6999 138 64.7999C136 65.5999 135.5 65.4999 134.6 63.4999C132.9 59.8999 131.3 56.2999 129.6 52.7999C129.1 51.6999 128.9 50.7999 130.1 50.0999C128.5 50.7999 126.8 51.5999 125.2 52.2999C126.1 52.1999 126.9 52.1999 127.4 53.1999C129.3 57.3999 131.2 61.4999 133 65.6999C133.4 66.4999 133.6 67.3999 132.6 67.9999C135.7 66.6999 138.8 65.3999 141.8 63.9999C142 63.8999 142.3 63.3999 142.2 63.0999C142.2 62.3999 141.9 61.6999 141.7 60.9999ZM139.8 46.0999C140.8 45.9999 141.5 46.2999 141.9 47.2999C143.4 51.4999 144.9 55.7999 146.4 59.9999C146.7 60.7999 146.8 61.5999 146 62.2999C147.7 61.6999 149.3 61.0999 151 60.4999C149 60.9999 148.6 59.4999 148.1 58.1999C146.7 54.3999 145.4 50.5999 144 46.8999C143.6 45.8999 143.4 44.9999 144.6 44.2999C143 44.8999 141.4 45.4999 139.8 46.0999ZM75.1004 297.4C75.7004 299.2 75.7004 299.2 74.1004 300.4C70.8004 302.9 67.4004 305.4 64.1004 308C63.3004 308.6 62.5004 309.3 61.4004 308.3C62.4004 309.6 63.4004 310.9 64.3004 312.2C63.9004 311.2 64.2004 310.5 65.0004 309.9C68.6004 307.3 72.1004 304.6 75.7004 302C76.5004 301.4 77.3004 300.9 78.3004 301.7C77.3004 300.3 76.2004 298.9 75.1004 297.4ZM369.9 173.5C369.6 171.9 369.2 170.3 368.9 168.6C368.9 170 367.8 170.3 366.7 170.5C362.7 171.3 358.7 172.2 354.7 173C353.6 173.2 352.5 173.6 351.7 172.3C352.1 174.1 352.5 175.9 352.9 178C353.1 175.7 353.1 175.6 355.3 175.1C359.3 174.2 363.4 173.3 367.5 172.5C368.5 172.3 369.4 172.4 369.9 173.5ZM190.7 52.6999C188.8 52.1999 188.7 52.1999 188.5 50.0999C188.1 45.9999 187.7 41.7999 187.4 37.6999C187.3 36.6999 187.1 35.5999 188.6 35.2999C186.9 35.3999 185.3 35.5999 183.6 35.6999C185 35.8999 185.1 36.8999 185.2 37.9999C185.5 42.0999 185.9 46.1999 186.2 50.2999C186.3 51.3999 186.5 52.5999 185 53.0999C186.9 53.0999 188.8 52.8999 190.7 52.6999ZM212.1 379.1C211.7 378.5 211 378 211 377.4C210.7 372.8 210.5 368.2 210.3 363.7C210.3 363 210.8 362.4 211.1 361.7C209.6 361.8 207.8 361.9 206 362C207.2 362.2 207.9 362.6 208 364C208.2 368.5 208.5 372.9 208.7 377.4C208.8 378.3 208.6 379.1 207.6 379.5C209.2 379.2 210.8 379.2 212.1 379.1ZM339 316.9C340.2 316.9 341.1 316.1 341.1 314.9C341.1 313.7 340.2 312.7 339 312.7C337.9 312.7 336.9 313.6 336.9 314.7C336.9 315.9 337.8 316.9 339 316.9ZM300.2 79.9999C300.7 79.6999 301.2 79.3999 301.5 79.0999C301.7 78.8999 301.8 78.1999 301.7 78.0999C301 77.4999 300.2 76.9999 299.4 76.3999C298.2 77.5999 298.5 79.1999 300.2 79.9999ZM300.4 81.1999C299.4 80.3999 298.6 79.7999 297.6 79.0999C297.5 80.0999 297.2 80.9999 297.3 81.7999C297.3 82.0999 298.3 82.6999 298.6 82.5999C299.3 82.2999 299.8 81.5999 300.4 81.1999ZM303.7 76.0999C302.9 75.2999 302.3 74.7999 301.7 74.1999C301.5 74.0999 301.1 73.9999 300.9 74.0999C300.2 74.6999 300.4 76.6999 301.3 77.0999C302.5 77.4999 302.9 76.3999 303.7 76.0999ZM296.2 81.4999C295.2 82.6999 295 83.6999 295.8 84.2999C296.5 84.7999 297.3 84.5999 298.1 83.4999C297.5 82.8999 296.9 82.2999 296.2 81.4999ZM305.3 73.7999C304.8 73.3999 304.5 73.0999 304.2 72.7999C303.8 72.3999 303.5 71.9999 303.1 71.5999C302.9 72.0999 302.6 72.5999 302.4 73.0999C302.3 73.3999 302.3 73.7999 302.4 73.9999C302.7 74.2999 303.1 74.5999 303.5 74.5999C304.1 74.4999 304.6 74.0999 305.3 73.7999ZM294.5 83.3999C293.3 84.5999 293.1 85.3999 293.8 85.8999C294.6 86.5999 295.3 85.9999 295.9 85.5999C295.4 84.8999 295 84.1999 294.5 83.3999ZM307 72.2999C306.5 71.3999 306.2 70.8999 305.8 70.2999C305.7 70.0999 305.5 70.0999 305.3 69.9999C305 70.4999 304.5 70.9999 304.4 71.5999C304.3 71.8999 304.7 72.5999 305 72.5999C305.6 72.6999 306.3 72.3999 307 72.2999ZM293.2 87.0999C293.2 86.9999 293.3 86.7999 293.3 86.6999C293 86.0999 292.7 85.5999 292.5 84.9999C292.4 84.9999 292.2 84.9999 292.1 84.9999C292 85.5999 291.8 86.1999 291.7 86.7999C292.2 86.8999 292.7 86.9999 293.2 87.0999ZM307.7 68.9999C307.3 69.7999 306.3 70.1999 307.1 70.9999C307.4 71.2999 308.1 71.0999 308.8 71.1999C308.4 70.3999 308.1 69.7999 307.7 68.9999ZM291 87.7999C291.1 87.6999 291.2 87.5999 291.2 87.4999C291.1 86.9999 290.9 86.5999 290.8 86.0999C290.7 86.0999 290.6 85.9999 290.5 85.9999C290.3 86.3999 290.1 86.8999 289.9 87.2999C290.2 87.4999 290.6 87.5999 291 87.7999ZM310 69.0999C309.9 69.0999 309.8 68.9999 309.7 68.9999C309.5 69.3999 309.3 69.8999 309.1 70.2999C309.5 70.3999 310 70.5999 310.6 70.7999C310.3 69.9999 310.1 69.4999 310 69.0999Z" fill="white"></path><path d="M267.9 156.5C267.9 156.4 268 156.2 268.1 155.9C268.3 156 268.4 156 268.4 156.1C269.1 158.3 270.5 160.1 270.2 162.7C270 164.5 270.7 166.7 271.8 168.2C273.2 170.2 275.3 171.7 277.1 173.4C277.2 173.3 277.3 173.3 277.4 173.2C277.3 173.6 277.3 174.1 277.2 174.6C277.6 174.7 278.1 174.8 278.5 175C278.8 175.2 279 175.6 279.3 175.9C278.9 176.1 278.6 176.4 278.2 176.5C277.3 176.5 276.3 176.4 275.9 177.6C276.4 177.9 277 178.1 277.5 178.3C277.5 178.4 277.5 178.5 277.5 178.6C277.1 178.6 276.7 178.8 276.3 178.7C275.4 178.5 275 178.8 274.6 179.7C273.8 181.4 273.8 181.3 275.4 182C275.6 182.1 275.9 182.7 275.8 182.9C275.4 184.1 274.4 184.7 273.1 184.6C272.3 184.6 271.5 184.5 270.7 184.5C270.7 184.7 270.6 184.8 270.6 185C271.5 185.3 272.3 185.5 273.2 185.8C273.2 185.9 273.2 186 273.2 186C272.2 186.2 271.6 186.5 271 187.5C270.2 188.8 268.8 189.7 267.7 190.8C265.7 192.8 263.8 194.7 262.6 197.3C261.7 199.1 260.5 200.8 259.5 202.6C259.2 203.1 259 203.8 258.8 204.4C258.4 205.4 258.6 206.1 259.6 206.5C261.4 207.4 263.2 208.3 265.1 209.2C269.2 211.1 273.3 213.2 277.5 214.9C280.2 216 281.8 218.2 283.6 220.1C284.5 221.1 285.2 222.3 285.9 223.4C286.1 223.7 286 224.2 286.1 224.5C286.2 224.9 286.2 225.3 286.4 225.6C287.5 227.1 287.6 228.3 286.6 229.9C284.9 232.7 282.4 234.6 280.1 236.8C279.4 237.5 278.9 238.4 278.1 239.1C276.8 240.1 275.5 241.1 274.1 241.9C273.1 242.5 271.8 242.6 270.7 243C270.8 243.1 270.9 243.2 271 243.3C270.9 243.6 271 244.1 270.8 244.2C269.2 245.7 267.8 247.4 265.4 248C265.6 248.1 265.8 248.2 266.1 248.4C265.2 249.3 264.5 250.3 263.6 251C261.1 252.8 260.6 255.4 260.8 258.2C260.9 259.2 260.5 259.7 259.7 260.2C258.2 261 256.7 261.9 255 262.8C256.6 264.6 257.8 262.3 259.1 262.6C258.5 263.2 257.9 263.9 257.3 264.5C258.2 265.2 258.3 265 258.9 264.2C259.5 263.4 260.5 262.9 261.1 262.4C261.6 263 261.9 263.4 262.3 263.9C263.7 265.6 265.1 267.3 266.5 269.1C267.1 269.9 267.9 270.7 267.3 271.9C266.8 272.8 265.5 273.3 264.1 273C260.7 272.3 257.9 270.7 256.1 267.6C254.8 265.4 253 263.7 250.8 262.3C249.4 261.4 248.3 260.2 247.1 259.1C246.8 258.8 246.5 258.2 246.7 258C247 257.6 247.6 257.2 248 257.3C249.2 257.5 250.1 256.8 250.8 256.2C253.6 253.7 257 252.2 260.3 250.5C261.6 249.9 262.9 249.2 264.1 248.5C264 248.4 264 248.3 263.9 248.1C263.7 248.2 263.5 248.2 263.3 248.3C262.9 248.5 262.6 248.8 262.3 248.8C261.2 248.9 260.4 249.8 259.1 249.6C258 249.5 256.8 250.6 255.7 251.1C255.2 251.4 254.7 251.7 254.1 251.9C253.8 252 253.5 251.9 253.2 251.9C253.2 251.8 253.1 251.6 253.1 251.5C255.3 250.3 257.5 249 259.7 247.8C259.7 247.7 259.6 247.6 259.6 247.5C257.3 248.6 254.9 249.8 252.5 250.9C252.5 250.6 252.6 250.4 252.6 250C252 250.2 251.5 250.3 250.7 250.6C251.6 249.9 252.2 249.5 252.7 249L252.6 248.9C252.1 249.1 251.7 249.2 251 249.5C251.8 248.3 252.3 247.3 253.6 247.3C253.8 247.3 254 247.3 254 247.2C256.8 244.3 260.6 243.1 264.2 241.7C266.6 240.8 268.9 240 271.1 238.8C271.7 238.5 272.2 238.2 272.7 237.7C272.3 237.8 271.9 237.8 271.4 237.9C274.7 235.3 277.9 232.7 281.2 230.1C281.1 229.9 281.1 229.8 281 229.6C279 228.9 277.1 229.7 275.2 230C273.3 230.3 271.4 231.1 269.4 231.7C269.7 231.5 270 231.2 270.3 231C270.6 230.8 271 230.6 271.5 230.2C270.9 230.3 270.5 230.3 270.1 230.4C270.1 230.3 270 230.2 270 230.2C270.4 229.9 270.9 229.5 271.3 229.2C273.2 228 273.6 226.5 272.3 224.6C271.3 223.1 270.1 222 268 222C264.7 222.1 261.4 221.7 258.1 221.5C253.8 221.3 249.4 221.2 245.1 220.8C241.9 220.5 239 219 236.5 216.7C238.8 217.5 241.1 218.3 243.4 219.1C243.5 219 243.5 218.8 243.6 218.7C241.8 218 240 217.3 238.1 216.6C238.2 216.5 238.3 216.4 238.3 216.4C243.6 218.1 249 217.7 254.4 217.9C257.3 218 260.3 218.5 263.2 218.8C263.4 218.8 263.6 218.9 263.8 218.9C263.8 218.8 263.9 218.7 263.9 218.6C261.8 218 259.7 217.4 257.6 216.7C257.6 216.6 257.6 216.6 257.6 216.5C258.7 216.6 259.9 216.6 261 216.8C262.1 217 263.3 217.3 264.5 217.2C263.1 216.6 261.7 216 260.2 215.4C260.6 215.4 260.8 215.4 261.1 215.3C261.1 215.2 261.1 215.2 261.1 215.1C260.8 215 260.4 214.9 260.1 214.8C259.8 214.7 259.4 214.6 259.4 214.5C258.9 212.4 257 212.6 255.5 212.2C253.8 211.8 252 211.8 250.3 211.4C249.3 211.2 248.4 210.8 247.4 210.4C247.1 210.4 246.7 210.6 246.4 210.5C243.1 209.6 239.9 208.5 237.3 206.2C236.9 205.8 236.3 205.6 236.6 204.7C236.9 204 236.4 203.1 236.4 202.3C236.4 201.7 236.5 201 236.9 200.6C237.2 200.3 238 200.5 238.5 200.4C238.5 200.2 238.4 199.7 238.3 199.2C238.4 199.2 238.5 199.1 238.6 199.1C239.2 199.7 239.7 200.3 240.3 201L240.4 200.9C240 200.4 239.7 199.8 239.4 199.4C239.6 198.8 239.8 198.3 239.9 197.9C240.1 197.1 241.9 195.3 242.9 195.2C245.1 194.8 245.6 193.5 245.1 191.4C244.7 190 245.1 188.4 245.2 186.9C245.2 186.7 245.8 186.6 246.4 186.3C246.3 187.1 246.3 187.6 246.3 188.1C246.4 188.1 246.5 188.2 246.6 188.2C246.9 187.4 247.3 186.6 247.5 185.8C248 183.9 248.7 182.1 250.2 180.8C250.4 180.6 250.3 180.1 250.3 179.7C250.2 177 250.3 174.3 250 171.6C249.6 168.1 251.1 165.2 252.4 162.2C252.5 161.9 252.6 161.7 252.7 161.4C252.8 161.2 252.8 161 252.9 160.6C246.8 159.6 241.3 157.4 238.2 151.8C234.3 153.4 230.6 154.9 227 156.5C223.7 157.9 220.5 159.5 217.2 161C215.8 161.7 214.7 162.7 214 164.1C213 166.1 211.5 167.7 209.7 169.2C208.8 169.9 208.3 170.9 207.5 171.7C207.2 172 206.7 172.1 206.2 172.3C206.2 171.9 206 171.4 206.2 171C206.6 170 207.1 169 207.7 167.7C207 167.8 206.6 167.8 206.1 167.9C204.3 168.5 202.5 169.1 200.7 169.7C199.4 170.1 199.1 170.1 198.4 169.1C201.7 168.9 204.6 168 207.4 166C207 166 206.7 166 206.4 166.1C206.6 165.8 206.7 165.7 207.1 165.3C205.7 165.9 204.6 166.3 203.5 166.8C203.5 166.7 203.5 166.6 203.5 166.5C203.1 166.4 202.7 166.2 202.3 166.2C200.5 166.4 198.7 166.7 196.9 166.8C196.5 166.8 196.1 166.4 195.7 166.2C196.1 166 196.4 165.6 196.8 165.5C197.7 165.3 198.7 165.1 199.7 164.9C199.8 165.2 199.9 165.5 200 165.8C201 165.3 202 164.9 202.9 164.4C202.9 164.3 202.9 164.2 202.9 164.1C201.9 163.9 200.9 163.8 199.8 163.7C198.7 163.6 197.6 163.6 196.6 163.4C196.3 163.3 196 162.8 195.7 162.5C196.1 162.3 196.4 162.1 196.8 162.1C198.4 162.1 200 162.1 201.7 161.9C200.8 161.6 200 161.2 199.1 160.9C198.3 160.6 198.1 160.1 198.5 159.2C199.9 159.6 201.2 159.9 202.5 160.3C204.1 160.8 205.6 160.7 207.1 159.8C208 159.2 209.2 159.1 210.2 158.6C213.2 157 216.2 155.4 219.1 153.7C223.7 151 228.4 148.2 233 145.4C233.3 145.2 233.6 144.9 233.9 144.7C234.7 143.8 235.7 143.6 236.9 143.8C237.6 143.9 238.2 144.1 237.6 145.2C238.9 144.5 240.2 144.1 241.5 144.7C242.7 145.2 243.1 146.3 242.6 148.5C243.4 148.7 244.3 149 245.1 149.2C246 149.5 247 149.8 247.9 150C250.3 150.8 252.6 152 254.9 152.9C255.2 153 255.7 152.8 256.1 152.8C256.5 152.7 256.8 152.6 257.2 152.4C256.6 152.2 256.1 152 255.4 151.7C255.7 151.4 255.9 151.2 256.2 151C255.8 150.8 255.4 150.6 254.9 150.4C255.1 150.2 255.3 150 255.5 150C258.5 150.7 261.5 151.4 264 153.3C265.1 154.7 266.5 155.5 267.9 156.5ZM257.3 162.4C257.5 163 257.8 163.7 258 164.3C258.1 164.3 258.2 164.2 258.2 164.2C258.2 163.9 258.3 163.5 258.3 163.2C258.4 163.2 258.6 163.1 258.7 163.1C259.1 164.4 259.5 165.7 259.9 166.9C260.1 166.4 260.2 165.9 260.1 165.5C259.6 164.1 259.4 162.7 257.8 161.8C256.6 161.1 255.8 159.8 254.8 158.6C254.3 159.6 254 160.3 253.6 161.1C255.9 162.8 256.4 165.3 256.8 167.8C256.9 168.8 256.1 170 256 171.1C255.7 173.4 255.6 175.7 255.2 178C254.7 181.7 256.3 185 257.3 188.7C256.9 188.5 256.7 188.3 256.7 188.4C256.4 188.9 256.1 189.4 255.7 190.1C255.8 190.4 256 191 256.3 191.7C256.2 191.8 256 191.9 255.9 192C255.7 191.6 255.5 191.2 255.2 190.7C255 191.2 255 191.4 254.8 191.7C254.2 190.7 253.7 189.9 253.2 189C253.1 189.1 253 189.1 252.9 189.2C253.6 190.7 254.2 192.2 254.8 193.7C257 192.1 259.1 190.5 261.1 189C261.2 189.1 261.2 189.2 261.3 189.3C261 189.7 260.7 190.1 260.4 190.4L260.5 190.5C261.2 190 261.9 189.5 262.6 189.1C262.7 189.3 262.9 189.4 263 189.6C262 190.4 261 191.1 260.1 191.9C261 191.5 261.6 190.8 262.4 190.3C263.2 189.8 264 189.6 264.8 189.2C265.5 188.8 266.2 188.4 267 188C267 188.1 267.1 188.2 267.1 188.2C266.4 189.1 265.7 190 265 190.8L265.1 190.9C266.3 190 267.5 189.2 268.6 188.3C267.1 187.2 265.6 186.3 264.4 185.1C261.7 182.5 260.1 179.2 258.9 175.7C257.6 171.3 256.6 167 257.3 162.4ZM252.8 191.6C252.7 191.6 252.6 191.7 252.5 191.7C252.5 193 252.5 194.2 252.5 195.5C252.9 195.4 253.3 195.3 253.6 195.2C253.6 194.9 253.5 194.5 253.5 194C253.9 194.2 254.1 194.3 254.3 194.5C254.4 194.4 254.5 194.4 254.6 194.3C254 193.4 253.4 192.5 252.8 191.6ZM225 152.6C226 152.6 226.7 152.6 227.4 152.6C228.5 152.6 228.9 152.1 228.8 151C228 151.4 227.2 151.8 226.3 152.2C226.3 151.8 226.2 151.6 226.2 151.1C225.7 151.7 225.4 152.1 225 152.6ZM269.6 164.8C269.5 164.8 269.3 164.9 269.2 164.9C269.8 166.5 270.4 168.1 270.9 169.7C271 169.7 271.1 169.6 271.2 169.6C270.7 168 270.1 166.4 269.6 164.8ZM231.8 149C231.9 149.1 231.9 149.2 232 149.4C232.9 148.9 233.8 148.4 234.7 147.9C234.6 147.8 234.6 147.7 234.5 147.6C233.7 148 232.8 148.5 231.8 149Z" fill="white"></path><path d="M271.2 150.5C274.8 147.8 278.7 146.6 283.2 147.6C287.4 148.6 290.4 151 291.9 154.9C292.7 156.9 292.4 159.2 291.4 161.2C290.6 162.7 289.7 164.3 288.8 165.8C289.8 166.3 290.8 166.1 291.6 165C292.3 164 293 162.9 293.5 161.8C294.6 159.4 295.5 156.9 296.8 154.6C298.2 152.2 297.9 150.1 296.5 147.9C295.8 146.9 295.8 145.9 295.8 144.7C295.7 143.1 295.3 141.6 295 140C294.8 139 294.4 138 294.2 137C294.1 136.7 294.4 136.3 294.5 135.9C294.8 136.1 295.2 136.2 295.4 136.5C295.8 137.2 296.2 138 296.8 138.7C296.8 138 296.7 137.3 296.7 136.6C296.7 136.1 296.9 135.6 297.1 135.1C297.4 135.5 297.9 135.9 298 136.3C298.4 137.4 298.6 138.6 298.9 139.8C299 140.2 299.1 140.5 299.3 141.2C299.8 139.1 298.8 137.2 300 135.5C301.3 137.5 300.6 139.8 301.1 141.9C301.2 141.9 301.4 141.9 301.5 141.9C301.5 140.9 301.6 139.9 301.7 138.9C301.7 138.5 302 138.2 302.2 137.8C302.4 138.1 302.7 138.4 302.8 138.8C303.2 141.2 303.2 143.6 303.8 145.9C304.2 147.6 303.7 148.8 303.1 150.3C302.5 151.8 302.3 153.5 302 155.1C301.6 157.8 301.4 160.5 301 163.2C300.5 166.7 298.9 169.9 297.2 173C296.9 173.5 296.6 174.2 295.7 173.9C294.9 173.5 293.8 173.3 293.8 172.1C293 172.2 292.1 172.4 292.4 171.1C292.4 171 292.3 170.9 292.2 170.8C290.7 169.7 290.5 168.4 291.4 167.1C290.5 167 289.5 166.8 288.5 166.7C288 166.7 287.4 166.9 287 167.3C285.9 168.4 284.8 169.6 283.7 170.8C282.4 172.1 281.1 172 280.4 170.3C279.4 167.9 278.4 165.5 277.7 162.9C277.4 161.7 277.7 160.4 277.9 159.1C278 158.8 278.5 158.3 278.9 158.2C279.7 158.1 280.6 158.2 281.5 157.9C280.8 157.7 280 157.4 279.3 157.2C280.5 154.9 283.4 155.8 285 153.9C282.8 153.7 280.8 152.9 278.6 153.3C278.9 153.1 279.1 153 279.7 152.7C278.3 152.7 277.3 152.7 276.2 152.7C275.1 152.7 275.1 152 275.2 151.1C274.8 151.1 274.4 151.1 274 151.1C274 151 273.9 150.9 273.9 150.8C275.4 150.1 276.8 149.4 278.2 148.8C277.3 148.5 277 148.5 274.8 149.3C273.6 149.7 272.4 150.1 271.2 150.5ZM295.9 171.6C296.1 171.6 296.3 171.7 296.5 171.7C297.5 168.3 298.5 164.9 299.5 161.5C299.4 161.5 299.3 161.4 299.2 161.4C299 161.6 298.7 161.8 298.3 162.2C298.5 160.3 298.5 158.6 298.8 156.9C298.9 156 299.3 155.2 299.6 154.3C299.5 154.3 299.5 154.3 299.4 154.2C298 157.7 296.5 161.1 295.1 164.6C295.2 164.7 295.3 164.7 295.4 164.8C295.7 164.6 296.1 164.4 296.4 164.2C296.2 165.7 295.9 167.3 295.7 168.8C296 168.7 296.2 168.6 296.4 168.6C296.2 169.8 296.1 170.7 295.9 171.6Z" fill="white"></path><path d="M227.6 241.5C226.9 242.1 226.4 242.4 226 242.8C225.9 242.7 225.7 242.6 225.6 242.5C225.9 241.9 226.1 241.4 226.4 240.8C228.3 237.3 231.3 234.8 234.2 232.1C235.2 231.2 236 230.2 237 229.1C236.6 229.1 236.3 229.1 236 229C236.1 229.1 236.1 229.2 236.2 229.3C233.8 231.9 230.1 233.1 228.2 236.2C228.1 236.1 227.9 236 227.8 235.9C228 235.4 228.2 234.7 228.6 234.3C230.5 232.3 232.5 230.5 234.5 228.5C235.4 227.5 236.2 226.4 237.2 225.5C238.8 224.3 240.5 223.2 242.2 222.2C242.7 221.9 243.5 221.9 244 222.1C245.3 222.6 246.5 223.3 247.7 223.9C248.1 224.1 248.6 224.2 249 224.3C250.5 224.9 250.6 225 249.7 226.3C248.2 228.4 246.8 230.6 245 232.5C242 235.6 238.9 238.7 235.5 241.4C233.9 242.7 232.6 244.3 231 245.6C229.2 247.1 227.2 248.3 225.3 249.6C225.2 249.5 225.1 249.5 225.1 249.4C226.3 248.3 227.4 247.2 228.6 246.1C228.5 246 228.5 246 228.4 245.9C227.6 246.6 226.7 247.3 225.9 248C225.8 247.9 225.8 247.9 225.7 247.8C226.1 247.3 226.5 246.8 227 246.3C226.9 246.2 226.9 246.2 226.8 246.1C226.2 246.6 225.6 247 225 247.5C224.8 247.1 224.7 246.7 224.4 246.1C225.1 244.8 227 243.7 227.6 241.5ZM241.3 225.7C241.4 225.8 241.4 226 241.5 226.1C243 225.6 244.1 224.6 245.1 223.4C245 223.3 245 223.2 244.9 223.1C243.7 223.9 242.5 224.8 241.3 225.7Z" fill="white"></path><path d="M218.9 264.5C218.7 264.9 218.5 265.3 218.2 265.7C218.1 265.7 218 265.7 217.9 265.7C217.9 265.3 217.8 264.9 217.9 264.6C218.4 263.4 218.9 262.2 219.4 261C220.2 259.2 220.9 257.4 221.7 255.7C222 255 224 253.9 224.7 254C224.6 254.3 224.6 254.7 224.4 255.2C225.4 254.4 226.2 254.4 227.1 255.1C227.2 255.2 227.8 255 228.1 254.7C228.6 254.3 229 253.7 229.4 253.2C230.2 254.1 230.9 254.9 231.5 255.6C232.1 256.4 232.1 257.2 231.4 258C231 258.6 230.7 259.3 230.5 260.1C230.8 259.9 231 259.8 231.3 259.6C231.3 259.7 231.4 259.7 231.4 259.8C231 262.6 230.7 265.6 229.1 267.8C228 269.3 227.6 271 226.7 272.5C225.8 274.1 225.2 275.9 224.3 277.6C223.6 279.1 222.6 280.5 222 282C221.2 284.1 220.7 286.2 220.1 288.3C220 288.6 219.9 289 219.8 289.3C219.6 289.3 219.5 289.2 219.3 289.2C219.5 288.2 219.6 287.1 219.9 286.1C221 283 222.2 280 223.4 277C223.7 276.3 224 275.6 224.3 274.9C224.5 274.1 224.6 273.2 224.8 272.3C224.7 272.3 224.6 272.3 224.5 272.2C223.3 275.4 222.1 278.5 220.9 281.7C220.8 281.7 220.7 281.7 220.7 281.6C220.8 281.3 220.8 281 220.9 280.7C221.2 279.9 221.7 279.1 220.4 278.5C220 279.7 219.5 280.9 219 282.2C218.8 282.2 218.7 282.1 218.5 282.1C219.4 279.4 220.3 276.7 221.2 274C221.1 274 221 273.9 220.8 273.9C220.4 275 220.2 276.3 219.5 277.2C218.4 278.6 218 280.3 217.3 281.9C217.2 281.9 217.1 281.8 217 281.8C217.3 280.4 217.7 279.1 218 277.7C217.9 277.7 217.9 277.7 217.8 277.6C217.2 279.5 216.5 281.4 215.9 283.3C215.8 283.3 215.7 283.2 215.5 283.2C215.5 282.2 215.3 281.3 215.5 280.3C216.1 277.7 216.9 275.2 217.4 272.6C217.9 269.9 218.1 267.1 218.4 264.3C218.7 264.5 218.8 264.5 218.9 264.5Z" fill="white"></path><path d="M213.6 287.9C213.7 288.1 213.8 288.3 213.9 288.5C215.1 291.5 216.3 294.4 217.9 297.2C218 297.3 218 297.4 218.2 297.8C218.4 296.2 218.6 294.9 218.7 293.6C218.8 293.6 218.8 293.6 218.9 293.6C218.9 294.7 219 295.7 218.9 296.8C218.7 298.2 219 299.4 219.5 300.6C220.1 302 220.1 303.5 220.9 304.8C221.7 306.2 222.4 307.6 223.7 308.6C225.1 309.7 225 310.3 223.5 311.1C220.8 312.6 218.4 312.3 216.2 310.1C214.4 308.3 213.2 306.1 212.3 303.7C212 302.9 211.7 302.1 211.2 301.4C210.4 300.2 209.9 298.9 210.1 297.5C210.1 297 210 296.5 209.8 296.1C208.7 293.8 208.6 291.4 208.7 288.7C209.1 289 209.3 289.2 209.7 289.5C209.6 288.7 209.5 288.1 209.4 287.5C209.5 287.5 209.5 287.4 209.6 287.4C210 288 210.3 288.7 210.7 289.3C212.2 288.2 210.2 286.5 211.6 285.1C212.9 288.9 214.2 292.6 215.5 296.3C215.6 296.3 215.7 296.2 215.8 296.2C215 293.4 214.1 290.7 213.3 287.9C213.4 288 213.5 288 213.6 287.9Z" fill="white"></path><path d="M209.8 298.8C208.6 298.1 208.2 297.5 208.9 296.2C209.2 297.2 209.5 297.9 209.8 298.8Z" fill="white"></path><path d="M36.3996 174.8C36.5996 174.8 37.0996 174.9 37.5996 175C40.4996 175.8 41.5996 178.6 39.6996 181.1C39.4996 181.3 39.0996 181.5 38.7996 181.4C36.5996 181.1 34.4996 180.7 32.2996 180.3C31.9996 180.2 31.5996 179.8 31.5996 179.6C31.6996 176.9 32.8996 174.7 36.3996 174.8Z" fill="white"></path><path d="M45.9998 159.1C45.7998 159.8 45.6998 160.3 45.5998 160.8C45.2998 161.9 44.9998 162.9 44.5998 164.1C42.5998 162.7 40.6998 161.3 38.7998 159.9C38.7998 159.8 38.7998 159.7 38.7998 159.6C41.0998 159.5 43.3998 159.3 45.9998 159.1Z" fill="white"></path><path d="M254 363.4C254 361.9 254.6 361 256 360.5C256.6 360.3 257.1 360.2 257.7 360C258.5 359.8 259 360 259.3 360.9C259.9 362.8 260.6 364.7 261.3 366.5C261.6 367.3 261.4 367.6 260.7 368C257.1 369.6 254 367.5 254 363.4Z" fill="white"></path><path d="M236.1 365.5C237.9 365.1 239.5 364.7 241.2 364.3C240.9 366.8 240.7 369.1 240.4 371.4C240.3 371.4 240.2 371.5 240.1 371.5C238.9 369.6 237.6 367.6 236.1 365.5Z" fill="white"></path><path d="M111.1 72.3C112.2 70.9 113.2 70.8 114.9 71.9C114.7 71.9 114.6 72 114.5 72C114.4 72 114.3 72.1 114.1 72.1C114.5 72.3 114.8 72.4 115.1 72.5C114.1 73.9 112.2 73.8 111.1 72.3Z" fill="white"></path><path d="M111.6 65.3999C111.7 64.3999 112 63.6999 113 63.4999C113.3 63.3999 113.7 63.4999 113.8 63.5999C114 63.7999 114 64.1999 113.9 64.3999C113.4 65.3999 112.6 65.5999 111.6 65.3999Z" fill="white"></path><path d="M112.8 68.9001C114.3 68.7001 114.8 69.1001 114.9 70.5001C113.7 71.2001 113.1 70.7001 112.8 68.9001Z" fill="white"></path><path d="M112.7 61.6999C111.7 62.3999 111.1 61.9999 110.8 61.0999C111.7 60.4999 112.2 60.8999 112.7 61.6999Z" fill="white"></path><path d="M120.1 70.3C119.3 69 119.6 68.3 121.3 68C121.5 69.4 121.3 69.9 120.1 70.3Z" fill="white"></path><path d="M119.9 61.3C119.5 61.9 119.1 62.4 118.6 63.1C117.8 61.7 118.2 61.2 119.6 61C119.7 61.1 119.8 61.2 119.9 61.3Z" fill="white"></path><path d="M119.2 67.9C118.9 67.8 118.2 67.8 118.2 67.6C118.1 67.1 118.2 66.6 118.3 66C119.5 66.5 119.2 67.3 119.2 67.9Z" fill="white"></path><path d="M334.4 101.7C334.3 105.9 329.5 110.6 325.4 110.6C321.7 110.6 318.4 106.8 318.9 102.9C319.4 99.2001 322.9 95.3001 326.6 94.6001C330.5 93.8001 334.5 97.4001 334.4 101.7Z" fill="white"></path><path d="M318.1 84.1C318.1 85.7 316 88.2 314 88.5C312.7 88.7 310.1 86.9 309.9 85.6C309.9 85.3 310.1 84.9 310.3 84.7C311.7 83.2 313.1 81.7 314.5 80.1C315 79.5 315.4 79.6 316 80C317.1 81 318.1 82 318.1 84.1Z" fill="white"></path><path d="M53.1996 274.1C53.6996 275.2 54.3996 276.7 55.1996 278.3C52.6996 278.5 50.3996 278.8 48.0996 279C49.7996 277.3 51.4996 275.7 53.1996 274.1Z" fill="white"></path></g><defs><clipPath id="clip0_120_608"><rect width="407.3" height="411.1" fill="white"></rect></clipPath></defs></svg>